<svg width="143" height="143" viewBox="0 0 143 143" fill="none" xmlns="http://www.w3.org/2000/svg">
<path d="M128.107 35.75C128.107 37.2094 127.571 38.618 126.601 39.7086C125.631 40.7991 124.295 41.4959 122.846 41.6666L122.148 41.7083H117.114L109.779 116.307C109.38 120.354 107.489 124.109 104.475 126.84C101.461 129.571 97.5384 131.084 93.471 131.083H49.5342C45.4668 131.084 41.5445 129.571 38.5304 126.84C35.5162 124.109 33.6256 120.354 33.2263 116.307L25.8916 41.7083H20.8568C19.2765 41.7083 17.761 41.0806 16.6436 39.9632C15.5262 38.8458 14.8984 37.3302 14.8984 35.75C14.8984 34.1698 15.5262 32.6542 16.6436 31.5368C17.761 30.4194 19.2765 29.7917 20.8568 29.7917H50.6484C50.6484 27.0531 51.1878 24.3413 52.2359 21.8111C53.2839 19.281 54.82 16.982 56.7565 15.0455C58.693 13.1091 60.9919 11.5729 63.5221 10.5249C66.0522 9.47691 68.764 8.9375 71.5026 8.9375C74.2412 8.9375 76.953 9.47691 79.4831 10.5249C82.0133 11.5729 84.3122 13.1091 86.2487 15.0455C88.1852 16.982 89.7213 19.281 90.7693 21.8111C91.8174 24.3413 92.3568 27.0531 92.3568 29.7917H122.148C123.729 29.7917 125.244 30.4194 126.362 31.5368C127.479 32.6542 128.107 34.1698 128.107 35.75ZM84.9089 55.1146C83.829 55.1146 82.7857 55.5057 81.9718 56.2155C81.158 56.9253 80.6287 57.9057 80.4818 58.9756L80.4401 59.5833V101.292L80.4818 101.899C80.629 102.969 81.1584 103.949 81.9722 104.659C82.786 105.368 83.8292 105.759 84.9089 105.759C85.9885 105.759 87.0317 105.368 87.8455 104.659C88.6593 103.949 89.1887 102.969 89.3359 101.899L89.3776 101.292V59.5833L89.3359 58.9756C89.189 57.9057 88.6597 56.9253 87.8459 56.2155C87.0321 55.5057 85.9887 55.1146 84.9089 55.1146ZM58.0964 55.1146C57.0165 55.1146 55.9732 55.5057 55.1593 56.2155C54.3455 56.9253 53.8162 57.9057 53.6693 58.9756L53.6276 59.5833V101.292L53.6693 101.899C53.8165 102.969 54.3459 103.949 55.1597 104.659C55.9735 105.368 57.0167 105.759 58.0964 105.759C59.176 105.759 60.2192 105.368 61.033 104.659C61.8468 103.949 62.3762 102.969 62.5234 101.899L62.5651 101.292V59.5833L62.5234 58.9756C62.3765 57.9057 61.8472 56.9253 61.0334 56.2155C60.2196 55.5057 59.1762 55.1146 58.0964 55.1146ZM71.5026 20.8542C69.1322 20.8542 66.8589 21.7958 65.1828 23.4719C63.5067 25.148 62.5651 27.4213 62.5651 29.7917H80.4401C80.4401 27.4213 79.4985 25.148 77.8224 23.4719C76.1463 21.7958 73.873 20.8542 71.5026 20.8542Z" fill="#212121"/>
</svg>
