<svg width="144" height="143" viewBox="0 0 144 143" fill="none" xmlns="http://www.w3.org/2000/svg">
<path d="M47.8903 60.326C47.8903 58.2693 49.5576 56.602 51.6143 56.602L91.8462 56.602C93.9029 56.602 95.5701 58.2693 95.5701 60.326C95.5701 62.3827 93.9029 64.05 91.8462 64.05H51.6143C49.5576 64.05 47.8903 62.3827 47.8903 60.326ZM51.6274 78.8712C49.5707 78.8712 47.9034 80.5385 47.9034 82.5952C47.9034 84.6519 49.5707 86.3192 51.6274 86.3192H79.9295C81.9862 86.3192 83.6534 84.6519 83.6534 82.5952C83.6534 80.5385 81.9862 78.8712 79.9295 78.8712H51.6274ZM49.499 16.2374C101.003 -4.37436 151.822 50.3064 124.148 100.119C111.579 122.745 80.3484 140.965 43.984 123.732L18.708 130.954C14.7862 132.074 11.1619 128.465 12.2624 124.539C13.771 119.159 17.3456 106.474 19.4355 99.5997C3.7612 71.6305 14.3304 30.3118 49.499 16.2374ZM117.638 96.502C141.727 53.1418 97.6091 5.00601 52.2663 23.1521C21.055 35.6428 11.9722 72.8837 26.6622 97.2122L27.5288 98.6475L27.0287 100.248C25.4434 105.321 22.4501 115.84 20.519 122.69L44.6912 115.784L45.9824 116.424C78.7722 132.679 106.525 116.505 117.638 96.502Z" fill="#212121"/>
</svg>
