<svg width="104" height="104" viewBox="0 0 104 104" fill="none" xmlns="http://www.w3.org/2000/svg">
<path d="M61.6868 15.9027L87.8301 42.046L36.4838 93.4027C35.0534 94.8338 33.2743 95.8667 31.3223 96.3994L4.88963 103.607C4.23083 103.786 3.5365 103.787 2.87692 103.611C2.21733 103.436 1.61589 103.089 1.13347 102.606C0.651052 102.123 0.304767 101.521 0.129662 100.861C-0.0454434 100.201 -0.0431539 99.507 0.136299 98.8484L7.3438 72.4157C7.87648 70.4637 8.90941 68.6846 10.3405 67.2542L61.6765 15.9027H61.6868ZM98.3185 5.41438C101.785 8.88122 103.733 13.5832 103.733 18.486C103.733 23.3889 101.785 28.0909 98.3185 31.5577L93.3068 36.5694L67.1635 10.426L72.1751 5.41438C75.642 1.94761 80.344 0 85.2468 0C90.1496 0 94.8516 1.94761 98.3185 5.41438Z" fill="#212121"/>
</svg>
