<svg width="143" height="142" viewBox="0 0 143 142" fill="none" xmlns="http://www.w3.org/2000/svg">
<path d="M36.4792 11.8359C29.5353 11.8359 23.9062 17.465 23.9062 24.4089V117.596C23.9062 124.54 29.5353 130.169 36.4792 130.169H106C112.944 130.169 118.573 124.54 118.573 117.596V54.478C118.573 52.7126 117.872 51.0196 116.623 49.7713L80.6375 13.7855C79.3893 12.5372 77.6962 11.8359 75.9309 11.8359H36.4792ZM31.3021 24.4089C31.3021 21.5496 33.6199 19.2318 36.4792 19.2318H71.2396V45.1172C71.2396 51.2441 76.2064 56.2109 82.3333 56.2109H111.177V117.596C111.177 120.456 108.859 122.773 106 122.773H36.4792C33.6199 122.773 31.3021 120.456 31.3021 117.596V24.4089ZM105.208 48.8151H82.3333C80.291 48.8151 78.6354 47.1595 78.6354 45.1172V22.2427L105.208 48.8151Z" fill="#212121"/>
</svg>
