<svg width="144" height="144" viewBox="0 0 144 144" fill="none" xmlns="http://www.w3.org/2000/svg">
<path d="M71.7604 26.4062V53.9062C71.7604 56.3374 72.7262 58.669 74.4453 60.3881C76.1644 62.1071 78.4959 63.0729 80.9271 63.0729H108.427V108.906C108.427 111.337 107.461 113.669 105.742 115.388C104.023 117.107 101.692 118.073 99.2604 118.073H68.0479C72.7917 113.135 75.6897 106.713 76.2539 99.8889C76.8182 93.0646 75.0144 86.2543 71.146 80.604C67.2777 74.9538 61.581 70.8086 55.0148 68.8661C48.4485 66.9236 41.4135 67.3024 35.0938 69.9387V35.5729C35.0938 33.1418 36.0595 30.8102 37.7786 29.0911C39.4977 27.372 41.8293 26.4063 44.2604 26.4062H71.7604Z" fill="#1C8CF5"/>
<path d="M78.6354 28.7031V53.9115C78.6354 54.5192 78.8769 55.1021 79.3066 55.5319C79.7364 55.9617 80.3193 56.2031 80.9271 56.2031H106.135L78.6354 28.7031ZM71.7604 97.4531C71.7604 94.1427 71.1084 90.8647 69.8415 87.8063C68.5747 84.7479 66.7179 81.969 64.3771 79.6281C62.0363 77.2873 59.2573 75.4305 56.1989 74.1637C53.1405 72.8968 49.8625 72.2448 46.5521 72.2448C43.2417 72.2448 39.9637 72.8968 36.9053 74.1637C33.8469 75.4305 31.0679 77.2873 28.7271 79.6281C26.3863 81.969 24.5295 84.7479 23.2626 87.8063C21.9958 90.8647 21.3437 94.1427 21.3438 97.4531C21.3438 104.139 23.9996 110.551 28.7271 115.278C33.4546 120.006 39.8664 122.661 46.5521 122.661C53.2377 122.661 59.6496 120.006 64.3771 115.278C69.1045 110.551 71.7604 104.139 71.7604 97.4531ZM48.8437 99.7448L48.8483 111.217C48.8483 111.825 48.6069 112.408 48.1771 112.837C47.7473 113.267 47.1645 113.509 46.5567 113.509C45.9489 113.509 45.366 113.267 44.9362 112.837C44.5064 112.408 44.265 111.825 44.265 111.217V99.7448H32.7837C32.176 99.7448 31.5931 99.5033 31.1633 99.0736C30.7335 98.6438 30.4921 98.0609 30.4921 97.4531C30.4921 96.8453 30.7335 96.2624 31.1633 95.8327C31.5931 95.4029 32.176 95.1615 32.7837 95.1615H44.2604V83.7031C44.2604 83.0953 44.5019 82.5124 44.9316 82.0827C45.3614 81.6529 45.9443 81.4115 46.5521 81.4115C47.1599 81.4115 47.7428 81.6529 48.1725 82.0827C48.6023 82.5124 48.8437 83.0953 48.8437 83.7031V95.1615H60.2883C60.8961 95.1615 61.479 95.4029 61.9088 95.8327C62.3386 96.2624 62.58 96.8453 62.58 97.4531C62.58 98.0609 62.3386 98.6438 61.9088 99.0736C61.479 99.5033 60.8961 99.7448 60.2883 99.7448H48.8437Z" fill="#1C8CF5"/>
</svg>
