<svg width="143" height="143" viewBox="0 0 143 143" fill="none" xmlns="http://www.w3.org/2000/svg">
<path d="M104.268 65.5443C112.96 65.5443 121.295 68.9969 127.441 75.1426C133.586 81.2883 137.039 89.6237 137.039 98.3151C137.039 107.006 133.586 115.342 127.441 121.488C121.295 127.633 112.96 131.086 104.268 131.086C95.5769 131.086 87.2415 127.633 81.0957 121.488C74.95 115.342 71.4974 107.006 71.4974 98.3151C71.4974 89.6237 74.95 81.2883 81.0957 75.1426C87.2415 68.9969 95.5769 65.5443 104.268 65.5443ZM104.268 77.4609L103.732 77.5026C103.137 77.6114 102.589 77.8988 102.161 78.3267C101.733 78.7546 101.445 79.3026 101.337 79.8979L101.289 80.4401V95.3359H86.3813L85.8451 95.3836C85.2498 95.4924 84.7018 95.7798 84.2739 96.2077C83.846 96.6356 83.5586 97.1836 83.4498 97.7789L83.4021 98.3151L83.4498 98.8514C83.5586 99.4466 83.846 99.9947 84.2739 100.423C84.7018 100.85 85.2498 101.138 85.8451 101.247L86.3813 101.294H101.289V116.208L101.337 116.744C101.445 117.34 101.733 117.888 102.161 118.315C102.589 118.743 103.137 119.031 103.732 119.139L104.268 119.187L104.804 119.139C105.4 119.031 105.948 118.743 106.376 118.315C106.804 117.888 107.091 117.34 107.2 116.744L107.247 116.208V101.294L122.167 101.3L122.703 101.253C123.299 101.144 123.847 100.856 124.274 100.428C124.702 100.001 124.99 99.4526 125.099 98.8573L125.146 98.3211L125.099 97.7848C124.989 97.1887 124.701 96.6401 124.272 96.2121C123.843 95.7842 123.294 95.4972 122.697 95.3896L122.161 95.3419H107.247V80.4461L107.2 79.9098C107.092 79.3135 106.805 78.7641 106.377 78.3351C105.949 77.9061 105.401 77.6177 104.804 77.5086L104.268 77.4609ZM117.674 38.7318C120.909 38.7307 124.034 39.8989 126.475 42.021C128.916 44.1431 130.507 47.076 130.956 50.279L131.051 51.2204L131.081 52.138V70.3705C124.242 63.8127 115.236 59.9894 105.768 59.6244C96.2996 59.2594 87.0262 62.378 79.7025 68.3899C72.3789 74.4017 67.5132 82.8898 66.0264 92.2476C64.5396 101.605 66.5348 111.184 71.6344 119.169H25.3203C21.9233 119.17 18.6528 117.881 16.1698 115.562C13.6868 113.244 12.1764 110.07 11.9439 106.681L11.9141 105.763V62.5591L48.8974 62.5651L50.0653 62.5115C52.3933 62.3093 54.6281 61.502 56.5479 60.1699L57.4774 59.4549L82.3475 38.7318H117.674ZM48.8974 23.8359C51.6383 23.8359 54.3076 24.6761 56.5479 26.2312L57.4774 26.9462L70.0078 37.3792L51.7574 52.5909L51.251 52.9543C50.725 53.2824 50.1366 53.4975 49.5231 53.5859L48.8915 53.6276L11.9141 53.6216V37.2422C11.9136 33.8452 13.2028 30.5747 15.5211 28.0917C17.8393 25.6086 21.0137 24.0982 24.4027 23.8657L25.3203 23.8359H48.8974Z" fill="#7A7A7A"/>
</svg>
