<svg width="143" height="143" viewBox="0 0 143 143" fill="none" xmlns="http://www.w3.org/2000/svg">
<path d="M113.187 65.5416C114.646 65.5418 116.055 66.0776 117.146 67.0474C118.236 68.0171 118.933 69.3534 119.104 70.8028L119.145 71.4999V107.25C119.145 113.365 116.795 119.245 112.581 123.676C108.367 128.106 102.611 130.748 96.5038 131.053L95.3121 131.083H47.6693C41.5546 131.083 35.6738 128.733 31.2433 124.519C26.8127 120.305 24.1715 114.549 23.8657 108.442L23.8359 107.25V71.4999C23.8376 69.9813 24.4191 68.5206 25.4617 67.4163C26.5042 66.312 27.929 65.6474 29.4451 65.5584C30.9611 65.4694 32.4539 65.9627 33.6185 66.9374C34.7831 67.9121 35.5315 69.2948 35.7109 70.8028L35.7526 71.4999V107.25C35.7532 110.255 36.8893 113.15 38.9334 115.353C40.9775 117.556 43.7786 118.905 46.7755 119.131L47.6693 119.167H95.3121C98.3175 119.166 101.212 118.03 103.415 115.986C105.618 113.942 106.968 111.141 107.193 108.144L107.229 107.25V71.4999C107.229 69.9197 107.857 68.4042 108.974 67.2868C110.091 66.1693 111.607 65.5416 113.187 65.5416ZM37.4746 43.4362L67.2484 13.6624C68.2736 12.6356 69.6382 12.0182 71.0863 11.9261C72.5343 11.8339 73.9662 12.2734 75.1134 13.1619L75.6734 13.6564L105.483 43.4302C106.554 44.5015 107.176 45.9402 107.224 47.454C107.272 48.9678 106.741 50.443 105.74 51.5797C104.74 52.7164 103.343 53.4293 101.836 53.5734C100.328 53.7176 98.8221 53.2822 97.6239 52.3558L97.0639 51.8613L77.4371 32.2643V90.8943C77.4369 92.3537 76.9011 93.7623 75.9313 94.8529C74.9616 95.9434 73.6253 96.6402 72.1759 96.8109L71.4788 96.8526C70.0194 96.8524 68.6108 96.3167 67.5202 95.3469C66.4296 94.3771 65.7329 93.0408 65.5621 91.5914L65.5204 90.8943V32.2345L45.8996 51.8613C44.8737 52.8871 43.5086 53.5034 42.0606 53.5945C40.6126 53.6855 39.1811 53.2451 38.0346 52.3558L37.4746 51.8613C36.4487 50.8353 35.8324 49.4702 35.7414 48.0222C35.6503 46.5742 36.0907 45.1427 36.98 43.9963L37.4746 43.4362L67.2484 13.6624L37.4805 43.4302L37.4746 43.4362Z" fill="#212121"/>
</svg>
